<svg xmlns="http://www.w3.org/2000/svg" viewBox="0 0 161 161" shape-rendering="crispEdges"><path fill="#ffffff" d="M0 0h161v161H0z"/><path stroke="#000000" d="M2 2.5h7m2 0h3m3 0h2m1 0h5m1 0h1m1 0h2m1 0h1m1 0h2m3 0h1m2 0h1m1 0h1m1 0h2m1 0h3m2 0h1m4 0h1m1 0h2m2 0h3m1 0h1m5 0h3m1 0h3m1 0h2m3 0h1m1 0h3m2 0h2m2 0h1m1 0h3m1 0h2m2 0h1m1 0h4m5 0h4m1 0h2m1 0h3m1 0h1m3 0h1m1 0h2m2 0h2m2 0h1m1 0h4m1 0h7M2 3.5h1m5 0h1m2 0h2m2 0h2m1 0h6m4 0h2m2 0h4m4 0h3m1 0h1m2 0h2m1 0h1m1 0h1m1 0h3m2 0h1m1 0h1m3 0h2m1 0h3m4 0h1m1 0h2m1 0h2m1 0h1m1 0h1m1 0h3m2 0h5m2 0h1m1 0h1m1 0h2m2 0h1m1 0h3m1 0h1m2 0h1m1 0h2m3 0h1m1 0h2m4 0h1m1 0h2m4 0h3m4 0h4m2 0h1m5 0h1M2 4.5h1m1 0h3m1 0h1m1 0h1m1 0h2m5 0h4m4 0h1m1 0h2m5 0h1m1 0h1m2 0h5m1 0h2m1 0h1m1 0h1m2 0h1m1 0h1m1 0h1m1 0h4m4 0h1m1 0h7m1 0h6m4 0h1m1 0h1m2 0h2m5 0h2m4 0h1m2 0h2m2 0h1m3 0h1m2 0h1m1 0h1m1 0h2m1 0h1m1 0h1m3 0h2m4 0h1m8 0h2m1 0h1m1 0h3m1 0h1M2 5.5h1m1 0h3m1 0h1m1 0h1m2 0h6m1 0h1m1 0h2m3 0h4m1 0h1m1 0h2m1 0h1m1 0h2m1 0h2m2 0h5m3 0h1m1 0h1m9 0h1m1 0h1m1 0h1m1 0h1m1 0h1m1 0h1m2 0h4m2 0h2m1 0h2m3 0h1m1 0h6m2 0h5m2 0h2m2 0h3m1 0h1m2 0h1m1 0h1m1 0h2m1 0h2m1 0h4m1 0h2m1 0h1m1 0h1m2 0h1m1 0h4m2 0h1m1 0h3m1 0h1M2 6.5h1m1 0h3m1 0h1m1 0h2m1 0h3m1 0h1m2 0h3m4 0h1m2 0h5m1 0h3m2 0h2m1 0h1m3 0h1m1 0h1m1 0h1m1 0h8m3 0h1m3 0h5m1 0h1m2 0h5m2 0h1m3 0h2m1 0h2m3 0h3m1 0h6m1 0h1m1 0h3m4 0h1m1 0h2m1 0h1m1 0h7m4 0h2m1 0h1m2 0h3m4 0h2m2 0h1m1 0h3m1 0h1M2 7.5h1m5 0h1m1 0h2m3 0h1m1 0h1m1 0h5m2 0h3m1 0h1m3 0h3m1 0h2m1 0h1m1 0h1m2 0h1m5 0h3m3 0h2m2 0h2m1 0h2m1 0h1m1 0h1m6 0h2m3 0h1m1 0h1m1 0h1m1 0h1m1 0h1m5 0h1m2 0h2m1 0h1m3 0h1m1 0h2m1 0h1m5 0h1m1 0h2m1 0h5m3 0h1m3 0h1m5 0h2m2 0h1m1 0h2m2 0h1m1 0h1m5 0h1M2 8.5h7m1 0h1m1 0h1m1 0h1m1 0h1m1 0h1m1 0h1m1 0h1m1 0h1m1 0h1m1 0h1m1 0h1m1 0h1m1 0h1m1 0h1m1 0h1m1 0h1m1 0h1m1 0h1m1 0h1m1 0h1m1 0h1m1 0h1m1 0h1m1 0h1m1 0h1m1 0h1m1 0h1m1 0h1m1 0h1m1 0h1m1 0h1m1 0h1m1 0h1m1 0h1m1 0h1m1 0h1m1 0h1m1 0h1m1 0h1m1 0h1m1 0h1m1 0h1m1 0h1m1 0h1m1 0h1m1 0h1m1 0h1m1 0h1m1 0h1m1 0h1m1 0h1m1 0h1m1 0h1m1 0h1m1 0h1m1 0h1m1 0h1m1 0h1m1 0h1m1 0h1m1 0h1m1 0h1m1 0h1m1 0h1m1 0h1m1 0h1m1 0h1m1 0h1m1 0h1m1 0h1m1 0h1m1 0h7M10 9.5h1m2 0h2m1 0h1m1 0h1m1 0h2m5 0h1m1 0h2m3 0h1m2 0h1m2 0h1m1 0h1m2 0h3m1 0h3m2 0h1m3 0h1m3 0h1m1 0h1m6 0h1m2 0h1m1 0h3m3 0h3m4 0h1m2 0h1m3 0h2m1 0h1m1 0h2m3 0h1m1 0h1m2 0h1m4 0h1m1 0h5m2 0h2m3 0h1m2 0h2m2 0h1m1 0h2m1 0h1M2 10.5h1m1 0h5m2 0h3m2 0h1m1 0h2m2 0h2m1 0h1m4 0h6m1 0h2m1 0h1m5 0h2m2 0h1m3 0h5m1 0h1m1 0h1m2 0h1m1 0h1m4 0h1m1 0h1m1 0h1m1 0h5m2 0h2m3 0h1m4 0h2m1 0h1m2 0h6m2 0h1m3 0h2m1 0h3m4 0h1m1 0h8m3 0h2m3 0h1m1 0h2m2 0h2m1 0h1m1 0h5M4 11.5h2m1 0h1m2 0h4m6 0h2m1 0h3m2 0h3m1 0h1m7 0h1m2 0h1m1 0h6m5 0h1m1 0h4m1 0h1m2 0h1m2 0h6m5 0h3m3 0h1m2 0h6m1 0h1m4 0h4m1 0h1m1 0h1m1 0h3m2 0h1m1 0h1m2 0h3m1 0h1m1 0h3m5 0h1m1 0h1m1 0h8m4 0h3m1 0h2m1 0h1M2 12.5h1m3 0h1m1 0h1m1 0h1m7 0h1m1 0h1m2 0h11m2 0h2m5 0h1m1 0h6m1 0h1m1 0h1m2 0h1m1 0h5m1 0h2m1 0h1m1 0h2m6 0h1m2 0h1m2 0h1m3 0h1m1 0h1m3 0h2m2 0h1m1 0h1m2 0h4m3 0h2m2 0h2m1 0h1m1 0h1m2 0h3m1 0h1m3 0h1m3 0h2m1 0h1m2 0h2m3 0h2m3 0h2m4 0h1m1 0h1M3 13.5h4m3 0h1m2 0h5m3 0h1m1 0h2m1 0h1m2 0h3m2 0h2m2 0h1m1 0h1m6 0h2m3 0h3m1 0h5m3 0h2m2 0h2m1 0h1m1 0h2m1 0h2m1 0h2m8 0h2m1 0h1m1 0h2m1 0h1m1 0h1m7 0h3m3 0h1m5 0h2m1 0h2m4 0h1m1 0h1m4 0h1m1 0h4m4 0h1m1 0h1m1 0h1m1 0h1m2 0h1m2 0h2M5 14.5h1m1 0h2m1 0h1m2 0h1m1 0h1m1 0h2m1 0h4m4 0h2m1 0h1m2 0h1m7 0h3m6 0h4m3 0h6m1 0h1m4 0h2m3 0h5m1 0h1m3 0h2m8 0h4m6 0h1m3 0h1m1 0h1m2 0h3m1 0h1m4 0h1m4 0h2m2 0h2m1 0h4m5 0h1m1 0h1m1 0h1m1 0h2m3 0h3M4 15.5h4m7 0h1m5 0h2m1 0h2m2 0h1m5 0h1m6 0h1m1 0h2m1 0h1m1 0h1m7 0h1m3 0h2m4 0h1m2 0h1m1 0h2m1 0h1m1 0h2m1 0h1m2 0h1m3 0h2m1 0h1m1 0h3m3 0h3m1 0h1m1 0h1m3 0h4m1 0h2m1 0h1m1 0h1m1 0h4m1 0h1m3 0h4m1 0h1m1 0h1m1 0h6m1 0h1m4 0h1m1 0h2m1 0h1M2 16.5h3m1 0h1m1 0h1m1 0h7m1 0h2m3 0h3m1 0h1m1 0h1m1 0h2m1 0h1m1 0h1m2 0h1m3 0h2m2 0h1m3 0h2m4 0h1m1 0h1m1 0h2m2 0h2m1 0h1m1 0h1m2 0h1m1 0h1m7 0h3m2 0h4m1 0h1m1 0h2m3 0h2m2 0h1m1 0h2m1 0h2m6 0h3m1 0h4m1 0h1m3 0h5m8 0h1m1 0h2m2 0h2m3 0h3m1 0h1M5 17.5h2m2 0h9m1 0h3m5 0h2m4 0h3m1 0h2m3 0h1m1 0h1m2 0h1m2 0h1m4 0h2m2 0h1m3 0h2m4 0h1m3 0h2m1 0h4m3 0h1m2 0h5m1 0h1m1 0h4m1 0h4m1 0h2m1 0h1m1 0h1m3 0h4m2 0h2m3 0h2m4 0h2m3 0h1m3 0h3m1 0h1m2 0h2m6 0h1m1 0h1M3 18.5h2m1 0h1m1 0h1m1 0h1m1 0h2m1 0h2m1 0h1m1 0h2m1 0h1m1 0h3m2 0h1m4 0h1m1 0h1m2 0h1m1 0h2m1 0h1m2 0h1m7 0h5m1 0h1m1 0h2m2 0h11m1 0h1m1 0h1m2 0h1m2 0h2m1 0h2m4 0h2m1 0h1m1 0h1m1 0h4m3 0h1m1 0h4m1 0h1m6 0h2m2 0h1m1 0h2m2 0h3m1 0h1m1 0h1m1 0h4m1 0h1m2 0h3m2 0h1M2 19.5h1m2 0h2m4 0h1m1 0h1m1 0h1m3 0h3m4 0h1m1 0h2m2 0h1m1 0h2m4 0h3m1 0h2m2 0h2m2 0h2m5 0h1m1 0h2m3 0h2m1 0h2m2 0h3m1 0h1m1 0h4m6 0h1m2 0h1m1 0h2m1 0h1m1 0h6m2 0h6m2 0h1m1 0h1m1 0h2m1 0h4m2 0h1m1 0h2m2 0h1m1 0h2m1 0h2m1 0h4m3 0h1m1 0h3m1 0h1m1 0h1M3 20.5h1m4 0h1m3 0h1m1 0h1m3 0h1m1 0h1m4 0h2m3 0h1m5 0h2m4 0h5m5 0h1m1 0h5m1 0h2m4 0h3m1 0h1m2 0h1m3 0h1m1 0h3m1 0h3m2 0h2m4 0h3m1 0h1m2 0h1m1 0h2m1 0h1m1 0h1m2 0h2m2 0h1m1 0h1m1 0h1m1 0h2m3 0h1m2 0h1m1 0h1m2 0h2m1 0h1m1 0h1m5 0h3m1 0h2m4 0h1m1 0h2M3 21.5h1m2 0h1m3 0h5m5 0h3m1 0h1m1 0h1m3 0h1m4 0h1m4 0h3m1 0h4m1 0h3m1 0h2m1 0h1m3 0h2m2 0h1m1 0h1m1 0h2m2 0h3m1 0h2m1 0h3m2 0h1m2 0h1m1 0h2m3 0h2m3 0h1m5 0h1m1 0h2m1 0h1m1 0h1m1 0h1m2 0h1m2 0h1m1 0h1m2 0h1m4 0h2m1 0h3m2 0h3m1 0h1m3 0h2m1 0h1m2 0h3m2 0h2M2 22.5h3m2 0h3m1 0h3m3 0h1m1 0h3m1 0h1m1 0h1m3 0h3m1 0h3m2 0h1m1 0h5m1 0h1m1 0h1m1 0h2m1 0h5m1 0h2m3 0h2m1 0h2m2 0h2m1 0h2m1 0h1m6 0h4m7 0h1m2 0h3m1 0h2m2 0h1m2 0h2m3 0h1m1 0h3m2 0h1m3 0h1m3 0h1m2 0h2m2 0h3m3 0h1m1 0h1m1 0h1m1 0h3m1 0h2m1 0h2m1 0h1M2 23.5h1m1 0h3m3 0h1m5 0h1m1 0h3m1 0h1m1 0h1m1 0h1m4 0h2m1 0h1m6 0h1m1 0h3m1 0h1m3 0h1m1 0h1m3 0h1m2 0h1m1 0h1m2 0h1m1 0h2m5 0h1m2 0h1m2 0h3m2 0h3m1 0h2m1 0h1m1 0h1m3 0h1m2 0h2m1 0h2m2 0h5m4 0h1m1 0h2m1 0h1m1 0h1m1 0h1m1 0h2m3 0h1m1 0h1m2 0h1m1 0h3m2 0h1m1 0h6m2 0h1M2 24.5h3m3 0h1m4 0h1m2 0h2m1 0h2m1 0h4m2 0h1m2 0h1m1 0h5m1 0h5m3 0h2m5 0h2m1 0h1m2 0h3m3 0h3m1 0h1m6 0h4m3 0h3m1 0h2m5 0h2m1 0h3m3 0h1m1 0h2m1 0h1m3 0h2m2 0h1m2 0h1m5 0h2m2 0h1m2 0h2m1 0h1m6 0h1m2 0h1m1 0h4m3 0h1m2 0h1M2 25.5h1m1 0h2m1 0h1m2 0h1m1 0h1m3 0h3m1 0h2m1 0h1m5 0h1m2 0h1m1 0h1m2 0h9m1 0h1m3 0h5m1 0h5m2 0h1m4 0h1m2 0h1m1 0h3m1 0h3m1 0h3m2 0h4m3 0h1m2 0h1m3 0h1m3 0h1m1 0h1m1 0h2m3 0h1m3 0h1m5 0h2m2 0h1m1 0h1m2 0h3m4 0h1m4 0h2m2 0h1m3 0h6M4 26.5h1m2 0h2m1 0h1m3 0h1m3 0h2m3 0h1m2 0h4m2 0h2m1 0h1m1 0h1m1 0h2m2 0h1m1 0h1m2 0h5m1 0h1m1 0h1m2 0h1m1 0h2m1 0h2m2 0h4m2 0h3m1 0h2m2 0h1m1 0h3m4 0h3m3 0h2m5 0h1m2 0h1m5 0h2m1 0h1m1 0h1m2 0h1m1 0h1m1 0h2m1 0h1m3 0h3m1 0h1m4 0h1m1 0h2m1 0h1m2 0h1m1 0h3m3 0h1M2 27.5h1m2 0h3m1 0h2m1 0h1m1 0h2m2 0h1m1 0h1m1 0h2m1 0h5m1 0h4m1 0h3m2 0h1m3 0h1m6 0h2m1 0h1m3 0h2m3 0h2m2 0h1m5 0h3m2 0h1m2 0h2m1 0h1m1 0h1m1 0h1m1 0h3m1 0h1m1 0h3m2 0h1m1 0h1m1 0h5m1 0h1m4 0h1m2 0h1m1 0h1m1 0h5m2 0h2m3 0h1m1 0h1m1 0h4m5 0h1m1 0h3M4 28.5h1m1 0h4m1 0h2m5 0h3m5 0h4m3 0h7m3 0h2m3 0h1m2 0h4m2 0h4m1 0h1m2 0h6m4 0h1m1 0h1m3 0h1m1 0h1m2 0h4m4 0h1m1 0h1m1 0h4m2 0h1m1 0h3m5 0h1m3 0h1m4 0h2m1 0h1m1 0h1m1 0h1m3 0h1m1 0h1m2 0h1m1 0h1m3 0h2m2 0h3m3 0h1m2 0h1M2 29.5h1m6 0h2m1 0h1m2 0h3m1 0h3m5 0h1m2 0h1m4 0h1m2 0h2m5 0h1m4 0h1m2 0h3m1 0h5m1 0h2m2 0h1m1 0h1m2 0h1m1 0h1m1 0h2m1 0h3m1 0h1m1 0h1m1 0h1m1 0h1m2 0h1m1 0h3m2 0h1m1 0h2m2 0h1m4 0h1m1 0h1m2 0h4m1 0h1m3 0h2m2 0h1m5 0h1m2 0h5m3 0h3m5 0h2m3 0h1M3 30.5h1m1 0h7m2 0h3m1 0h1m1 0h1m5 0h1m2 0h6m2 0h1m1 0h1m2 0h1m1 0h1m2 0h1m4 0h9m2 0h2m2 0h3m2 0h1m1 0h2m2 0h5m2 0h5m1 0h2m2 0h1m2 0h2m1 0h6m2 0h1m1 0h1m1 0h4m1 0h1m6 0h6m1 0h1m1 0h1m1 0h1m4 0h1m1 0h2m4 0h10M6 31.5h1m3 0h2m3 0h1m4 0h4m3 0h2m1 0h1m3 0h2m2 0h3m2 0h3m1 0h3m3 0h2m3 0h4m2 0h5m2 0h2m1 0h1m2 0h2m3 0h1m3 0h2m2 0h1m1 0h1m2 0h1m1 0h1m1 0h1m1 0h2m3 0h1m1 0h3m1 0h1m4 0h1m1 0h8m3 0h2m4 0h2m2 0h3m1 0h1m4 0h2m3 0h1m2 0h1M3 32.5h4m1 0h1m1 0h7m1 0h1m3 0h2m1 0h1m2 0h1m1 0h1m1 0h1m1 0h3m1 0h1m1 0h3m2 0h1m2 0h3m2 0h2m1 0h1m1 0h1m2 0h1m1 0h6m1 0h1m3 0h1m3 0h1m1 0h1m1 0h1m1 0h8m1 0h2m1 0h1m1 0h5m1 0h1m1 0h1m1 0h3m1 0h1m8 0h1m1 0h4m1 0h1m1 0h3m1 0h2m1 0h1m3 0h1m2 0h3m1 0h1m1 0h1m1 0h1m1 0h2m1 0h2M2 33.5h1m3 0h1m3 0h6m1 0h1m1 0h2m4 0h1m2 0h1m1 0h1m3 0h7m1 0h2m2 0h1m3 0h1m2 0h2m3 0h1m2 0h2m4 0h1m3 0h2m1 0h1m1 0h3m3 0h2m1 0h1m3 0h2m2 0h3m6 0h1m3 0h10m1 0h1m1 0h1m1 0h1m2 0h3m3 0h2m3 0h1m3 0h2m6 0h1m1 0h2m3 0h1m2 0h1M4 34.5h9m1 0h1m1 0h5m1 0h1m1 0h3m1 0h7m2 0h3m1 0h2m4 0h2m1 0h1m1 0h1m1 0h6m1 0h1m1 0h1m5 0h1m2 0h2m4 0h9m2 0h1m1 0h3m4 0h2m2 0h8m3 0h2m1 0h3m2 0h1m1 0h1m1 0h6m1 0h1m3 0h1m1 0h1m5 0h3m1 0h1m1 0h5m1 0h1m1 0h1M2 35.5h2m1 0h3m4 0h1m2 0h2m1 0h3m1 0h1m2 0h1m9 0h5m1 0h2m1 0h2m3 0h1m1 0h2m1 0h1m3 0h1m2 0h1m5 0h2m1 0h1m4 0h5m3 0h1m3 0h1m1 0h2m1 0h1m1 0h1m4 0h1m1 0h2m1 0h2m1 0h1m2 0h1m5 0h2m2 0h1m1 0h3m3 0h1m2 0h1m3 0h5m1 0h4m2 0h1m2 0h1m1 0h2m1 0h2M2 36.5h1m3 0h3m1 0h1m3 0h2m1 0h1m1 0h1m2 0h1m3 0h4m3 0h2m1 0h3m3 0h3m3 0h1m2 0h1m3 0h1m1 0h2m1 0h2m1 0h1m2 0h1m1 0h1m1 0h2m3 0h1m1 0h1m1 0h1m2 0h1m1 0h2m1 0h2m1 0h1m2 0h4m3 0h1m1 0h1m1 0h1m2 0h1m2 0h3m6 0h1m1 0h2m2 0h7m1 0h5m5 0h1m2 0h2m1 0h2m1 0h2m1 0h2m1 0h1M2 37.5h3m1 0h1m2 0h1m1 0h1m1 0h1m1 0h2m1 0h3m3 0h2m2 0h1m5 0h3m4 0h1m2 0h2m1 0h1m1 0h2m1 0h2m3 0h2m3 0h1m1 0h1m2 0h1m1 0h1m2 0h1m1 0h1m1 0h1m1 0h1m1 0h1m2 0h2m4 0h2m1 0h2m3 0h1m4 0h3m4 0h2m3 0h2m2 0h1m4 0h1m1 0h1m4 0h2m1 0h1m1 0h1m1 0h1m2 0h4m1 0h1m3 0h3m3 0h1m1 0h2M2 38.5h1m2 0h1m2 0h1m1 0h1m1 0h1m2 0h1m1 0h3m6 0h1m1 0h3m1 0h1m1 0h1m1 0h1m1 0h3m1 0h1m3 0h1m1 0h1m2 0h2m1 0h2m1 0h2m2 0h2m2 0h1m1 0h1m6 0h8m4 0h1m4 0h1m1 0h1m1 0h1m2 0h1m3 0h2m1 0h2m4 0h1m1 0h4m1 0h1m2 0h1m1 0h1m4 0h1m1 0h4m2 0h1m3 0h2m1 0h2m1 0h1m1 0h2m4 0h5M6 39.5h1m5 0h1m4 0h1m5 0h2m1 0h1m4 0h2m3 0h1m1 0h1m1 0h2m1 0h6m1 0h2m2 0h1m1 0h3m4 0h1m1 0h1m3 0h2m6 0h1m1 0h1m1 0h1m4 0h2m1 0h1m1 0h3m1 0h1m3 0h1m1 0h2m1 0h1m1 0h1m1 0h1m1 0h1m1 0h1m2 0h1m1 0h1m2 0h5m2 0h3m2 0h2m1 0h1m2 0h1m1 0h3m7 0h1m1 0h2m1 0h2M3 40.5h1m1 0h1m1 0h2m1 0h1m1 0h2m7 0h1m2 0h3m1 0h4m1 0h5m2 0h1m1 0h3m2 0h1m2 0h2m2 0h2m2 0h2m2 0h1m2 0h3m7 0h1m1 0h1m2 0h1m1 0h3m1 0h1m1 0h1m6 0h2m1 0h4m1 0h4m3 0h1m2 0h1m1 0h2m2 0h1m1 0h2m2 0h1m1 0h2m3 0h3m2 0h1m2 0h2m1 0h4m2 0h4m3 0h1m1 0h1M3 41.5h1m3 0h1m1 0h1m1 0h1m1 0h1m2 0h2m2 0h1m2 0h2m8 0h5m2 0h1m1 0h1m1 0h3m1 0h3m1 0h3m1 0h2m1 0h1m2 0h1m1 0h1m3 0h1m2 0h4m1 0h1m1 0h1m1 0h2m1 0h1m4 0h3m1 0h1m1 0h2m5 0h1m2 0h1m1 0h2m1 0h1m6 0h2m4 0h2m1 0h1m1 0h1m1 0h1m4 0h2m1 0h1m2 0h3m2 0h3m7 0h1M2 42.5h1m1 0h1m2 0h4m1 0h2m2 0h6m4 0h3m5 0h1m2 0h1m4 0h1m2 0h1m3 0h3m1 0h2m2 0h1m1 0h3m2 0h1m2 0h1m1 0h1m1 0h1m1 0h1m1 0h3m1 0h2m1 0h1m1 0h3m8 0h1m2 0h1m3 0h2m1 0h1m6 0h7m2 0h1m1 0h1m1 0h1m1 0h1m1 0h4m1 0h1m1 0h2m3 0h4m1 0h4m3 0h3m1 0h2M3 43.5h2m5 0h1m1 0h1m2 0h2m4 0h2m1 0h1m4 0h2m1 0h1m1 0h1m1 0h1m1 0h2m1 0h2m3 0h6m1 0h2m2 0h2m4 0h1m1 0h1m1 0h5m2 0h2m1 0h1m8 0h1m2 0h2m1 0h1m4 0h2m2 0h2m2 0h1m1 0h2m1 0h2m5 0h1m2 0h5m1 0h4m2 0h1m5 0h1m1 0h1m3 0h2m2 0h1m1 0h1m1 0h2m3 0h1M4 44.5h2m1 0h2m1 0h2m2 0h4m2 0h2m1 0h7m1 0h3m2 0h4m3 0h1m2 0h1m3 0h3m2 0h2m3 0h1m2 0h1m2 0h6m5 0h6m1 0h1m2 0h2m1 0h2m5 0h2m1 0h2m1 0h2m1 0h1m2 0h3m3 0h1m2 0h2m4 0h2m1 0h2m1 0h6m1 0h1m2 0h1m3 0h4m1 0h1m2 0h1m4 0h2M4 45.5h3m4 0h3m1 0h3m1 0h2m3 0h1m2 0h2m3 0h2m2 0h2m2 0h2m3 0h1m1 0h2m4 0h1m1 0h5m1 0h2m1 0h2m6 0h3m1 0h1m2 0h3m2 0h2m2 0h2m4 0h2m3 0h1m1 0h1m1 0h2m1 0h1m2 0h1m1 0h1m2 0h1m3 0h2m2 0h2m2 0h2m1 0h2m2 0h2m3 0h1m1 0h3m2 0h1m1 0h1m1 0h1m5 0h1m2 0h1M2 46.5h8m2 0h2m4 0h1m1 0h5m1 0h1m2 0h1m1 0h1m3 0h1m1 0h1m1 0h3m1 0h1m3 0h2m1 0h1m2 0h1m1 0h2m1 0h1m1 0h3m6 0h1m2 0h1m3 0h6m1 0h1m2 0h1m8 0h5m2 0h2m1 0h1m3 0h1m4 0h1m1 0h1m1 0h2m1 0h1m1 0h1m3 0h1m1 0h4m1 0h4m1 0h1m2 0h1m1 0h1m1 0h5m1 0h1m1 0h1m1 0h3M2 47.5h2m7 0h3m6 0h4m1 0h1m3 0h1m2 0h3m3 0h1m1 0h1m2 0h4m1 0h1m6 0h2m1 0h1m1 0h2m2 0h2m1 0h2m2 0h3m1 0h1m1 0h2m3 0h1m4 0h1m1 0h1m2 0h1m1 0h1m2 0h1m1 0h1m1 0h3m1 0h1m1 0h2m1 0h1m1 0h2m2 0h2m1 0h4m1 0h1m1 0h1m4 0h3m1 0h1m1 0h2m1 0h1m1 0h2m3 0h1m2 0h1m1 0h2m1 0h1m1 0h1M3 48.5h1m1 0h2m1 0h1m1 0h2m1 0h1m1 0h2m1 0h3m2 0h3m5 0h1m2 0h3m1 0h1m2 0h1m4 0h5m3 0h2m5 0h1m1 0h1m1 0h6m1 0h1m2 0h1m1 0h1m1 0h1m2 0h1m1 0h3m1 0h2m4 0h5m1 0h2m1 0h1m2 0h1m1 0h3m2 0h1m2 0h1m2 0h1m1 0h6m1 0h1m2 0h1m1 0h2m1 0h1m2 0h1m1 0h1m1 0h1m1 0h2m2 0h1m1 0h2m2 0h1m2 0h1M2 49.5h2m3 0h1m4 0h2m3 0h5m2 0h3m1 0h1m1 0h2m1 0h3m1 0h1m1 0h3m1 0h1m1 0h1m2 0h2m1 0h2m2 0h1m1 0h1m1 0h2m1 0h1m1 0h2m1 0h1m1 0h1m1 0h1m2 0h1m1 0h1m1 0h1m1 0h2m5 0h1m2 0h3m1 0h2m3 0h3m1 0h2m1 0h2m1 0h3m2 0h3m3 0h3m2 0h2m1 0h2m1 0h1m2 0h2m1 0h7m2 0h1m6 0h2m2 0h2M5 50.5h1m2 0h1m3 0h2m1 0h4m5 0h1m2 0h1m1 0h1m2 0h3m2 0h1m1 0h1m1 0h1m1 0h1m1 0h2m2 0h1m1 0h2m2 0h1m1 0h3m1 0h2m1 0h2m2 0h2m1 0h2m2 0h3m2 0h1m5 0h1m2 0h1m2 0h2m2 0h1m1 0h4m9 0h1m2 0h1m1 0h1m1 0h1m4 0h1m1 0h1m1 0h6m1 0h1m1 0h3m3 0h3m1 0h1m1 0h1m4 0h6M2 51.5h6m1 0h1m1 0h2m2 0h1m1 0h1m1 0h1m1 0h1m3 0h1m1 0h4m1 0h1m1 0h1m1 0h1m2 0h2m5 0h1m1 0h1m1 0h2m4 0h4m1 0h2m3 0h1m4 0h2m4 0h2m10 0h1m1 0h3m1 0h1m2 0h2m1 0h1m5 0h4m1 0h1m6 0h4m1 0h1m1 0h1m1 0h2m1 0h3m1 0h5m2 0h3m7 0h2m1 0h1m1 0h2M5 52.5h1m1 0h2m9 0h1m1 0h1m1 0h1m2 0h1m1 0h3m4 0h2m1 0h1m4 0h2m1 0h5m5 0h1m1 0h5m4 0h3m1 0h2m6 0h1m1 0h5m1 0h1m1 0h2m4 0h1m1 0h3m1 0h4m2 0h1m1 0h1m1 0h2m1 0h2m2 0h2m3 0h1m2 0h4m1 0h5m1 0h2m1 0h3m1 0h4m2 0h1m2 0h4M2 53.5h2m6 0h1m2 0h3m2 0h1m1 0h4m4 0h1m2 0h1m2 0h6m4 0h2m1 0h3m1 0h2m4 0h1m3 0h4m2 0h1m1 0h1m2 0h5m2 0h1m1 0h1m1 0h2m4 0h8m5 0h4m2 0h1m1 0h1m2 0h5m1 0h1m1 0h3m1 0h1m3 0h3m2 0h2m1 0h1m2 0h2m1 0h1m9 0h2M2 54.5h2m1 0h6m1 0h2m1 0h4m1 0h1m4 0h1m1 0h1m1 0h8m3 0h1m1 0h3m1 0h5m2 0h7m1 0h3m1 0h1m1 0h1m1 0h1m1 0h2m2 0h15m1 0h3m4 0h1m3 0h6m2 0h2m1 0h4m1 0h1m7 0h5m1 0h1m1 0h4m4 0h7m1 0h5m1 0h1m1 0h1M2 55.5h3m1 0h1m3 0h1m2 0h1m1 0h1m2 0h3m1 0h1m3 0h5m3 0h1m2 0h3m2 0h1m1 0h4m6 0h1m3 0h2m1 0h3m1 0h1m4 0h2m4 0h3m3 0h1m2 0h1m1 0h1m1 0h1m2 0h2m1 0h1m2 0h1m3 0h1m3 0h4m1 0h2m4 0h1m2 0h1m1 0h5m3 0h2m5 0h3m1 0h3m1 0h1m1 0h4m3 0h1m1 0h1M4 56.5h3m1 0h1m1 0h1m1 0h1m1 0h2m3 0h2m1 0h1m1 0h1m1 0h3m1 0h1m1 0h1m1 0h3m1 0h1m1 0h2m1 0h2m5 0h1m1 0h1m1 0h1m1 0h1m1 0h1m1 0h1m2 0h1m4 0h1m1 0h1m4 0h4m1 0h1m1 0h1m1 0h2m2 0h2m4 0h1m1 0h1m1 0h1m1 0h3m1 0h1m1 0h2m3 0h1m1 0h2m4 0h3m4 0h1m1 0h1m1 0h5m4 0h1m1 0h1m3 0h2m1 0h1m1 0h1m1 0h1m1 0h1m1 0h1m1 0h1M2 57.5h1m1 0h1m1 0h1m3 0h2m4 0h2m4 0h2m2 0h1m2 0h2m3 0h3m3 0h2m2 0h1m2 0h3m3 0h2m3 0h1m2 0h4m3 0h2m1 0h2m1 0h1m3 0h1m3 0h1m1 0h2m2 0h4m2 0h3m3 0h1m1 0h1m3 0h4m1 0h2m1 0h1m1 0h2m3 0h3m2 0h1m3 0h1m2 0h2m2 0h2m1 0h2m3 0h1m4 0h1m3 0h1m2 0h2M2 58.5h2m2 0h8m2 0h1m2 0h1m1 0h2m2 0h1m1 0h1m1 0h7m1 0h3m1 0h2m1 0h1m1 0h2m4 0h7m1 0h2m1 0h2m2 0h1m5 0h3m1 0h7m1 0h3m1 0h1m1 0h1m1 0h1m3 0h3m1 0h6m2 0h1m1 0h1m1 0h1m1 0h2m1 0h1m4 0h1m1 0h8m3 0h2m6 0h2m3 0h6m1 0h3M2 59.5h1m6 0h1m3 0h1m1 0h2m2 0h1m1 0h1m2 0h1m3 0h1m1 0h1m2 0h4m1 0h2m2 0h1m2 0h4m1 0h1m2 0h2m1 0h2m1 0h1m2 0h1m5 0h1m2 0h1m2 0h1m2 0h1m2 0h1m4 0h1m1 0h1m3 0h3m4 0h2m2 0h2m2 0h5m1 0h2m3 0h1m2 0h6m1 0h4m1 0h1m3 0h4m2 0h1m4 0h1m1 0h1m2 0h1m1 0h2M3 60.5h6m1 0h1m2 0h2m2 0h1m1 0h2m1 0h2m1 0h2m1 0h1m6 0h2m1 0h1m2 0h3m3 0h2m3 0h3m1 0h1m1 0h3m5 0h3m1 0h2m1 0h1m3 0h1m5 0h2m1 0h1m1 0h1m5 0h3m1 0h7m4 0h2m3 0h4m3 0h2m2 0h2m1 0h1m2 0h1m1 0h2m2 0h1m1 0h3m1 0h1m1 0h4m4 0h1m1 0h1m1 0h2M2 61.5h2m1 0h2m4 0h2m2 0h2m3 0h2m4 0h1m1 0h1m1 0h2m7 0h1m1 0h3m1 0h2m1 0h1m1 0h1m1 0h3m1 0h2m1 0h4m1 0h1m4 0h1m2 0h1m1 0h3m2 0h1m2 0h5m2 0h2m1 0h1m1 0h4m11 0h2m2 0h5m6 0h5m2 0h1m7 0h4m2 0h1m4 0h5m2 0h2M2 62.5h1m1 0h2m2 0h2m5 0h1m5 0h1m1 0h1m2 0h1m1 0h4m2 0h2m3 0h1m1 0h2m4 0h4m4 0h2m2 0h1m2 0h1m1 0h1m2 0h1m4 0h1m1 0h1m3 0h1m2 0h1m1 0h4m1 0h1m2 0h2m5 0h1m1 0h1m1 0h3m1 0h2m3 0h1m2 0h1m1 0h1m1 0h2m3 0h1m1 0h1m6 0h3m1 0h3m4 0h2m1 0h4m4 0h1m1 0h3M2 63.5h2m1 0h1m6 0h1m1 0h2m2 0h2m2 0h1m2 0h3m5 0h2m1 0h1m1 0h2m1 0h2m1 0h2m2 0h1m4 0h2m1 0h4m1 0h2m1 0h3m2 0h1m1 0h1m5 0h5m1 0h1m2 0h2m1 0h1m1 0h2m4 0h2m3 0h1m5 0h5m4 0h1m1 0h2m1 0h1m1 0h2m2 0h1m1 0h1m4 0h1m1 0h2m2 0h4m1 0h3m2 0h1m3 0h1m2 0h1M5 64.5h2m1 0h3m1 0h2m1 0h1m4 0h1m5 0h1m8 0h1m1 0h2m1 0h1m5 0h1m2 0h1m2 0h1m4 0h1m1 0h1m1 0h1m3 0h6m2 0h1m1 0h1m6 0h1m1 0h1m1 0h1m1 0h2m5 0h2m1 0h6m3 0h1m1 0h1m3 0h1m6 0h1m1 0h1m1 0h2m2 0h2m1 0h1m1 0h2m4 0h1m1 0h1m1 0h5m1 0h2m1 0h1m2 0h4M2 65.5h2m2 0h2m2 0h1m2 0h1m1 0h1m1 0h1m1 0h2m1 0h2m1 0h6m1 0h1m2 0h2m2 0h1m2 0h2m2 0h1m2 0h1m1 0h5m1 0h1m2 0h3m1 0h1m2 0h1m3 0h4m3 0h1m1 0h4m3 0h2m1 0h1m1 0h1m1 0h4m2 0h1m2 0h3m2 0h1m1 0h7m1 0h2m2 0h1m2 0h1m1 0h2m4 0h2m3 0h1m1 0h2m1 0h1m1 0h1m4 0h1m1 0h2m1 0h1m2 0h1M2 66.5h1m1 0h2m1 0h4m3 0h2m3 0h1m2 0h5m1 0h1m3 0h1m1 0h1m1 0h2m1 0h1m1 0h2m2 0h1m2 0h1m1 0h1m1 0h2m2 0h1m4 0h2m1 0h1m1 0h3m1 0h3m1 0h2m4 0h2m1 0h4m1 0h1m3 0h2m2 0h3m1 0h1m1 0h3m1 0h1m6 0h2m1 0h4m3 0h1m1 0h1m3 0h1m2 0h3m1 0h1m3 0h1m1 0h4m2 0h1m4 0h2m1 0h1m1 0h1M2 67.5h2m1 0h2m6 0h1m1 0h3m2 0h4m1 0h5m1 0h1m4 0h1m1 0h1m2 0h1m3 0h1m3 0h2m2 0h1m2 0h1m7 0h1m1 0h1m2 0h1m1 0h5m1 0h2m1 0h3m2 0h3m3 0h2m1 0h1m2 0h2m2 0h1m3 0h1m2 0h1m1 0h3m4 0h1m1 0h2m1 0h1m1 0h4m2 0h3m3 0h1m1 0h2m1 0h3m1 0h1m2 0h1m4 0h3M3 68.5h1m1 0h2m1 0h1m2 0h2m1 0h2m1 0h3m1 0h2m1 0h2m1 0h1m5 0h1m3 0h1m2 0h1m1 0h1m1 0h1m1 0h1m1 0h2m1 0h2m1 0h1m1 0h2m2 0h2m3 0h4m1 0h1m2 0h1m1 0h1m7 0h2m2 0h2m6 0h2m1 0h1m1 0h1m1 0h1m1 0h1m1 0h2m2 0h3m2 0h2m3 0h1m1 0h1m2 0h2m2 0h1m1 0h1m1 0h2m4 0h1m4 0h1m1 0h2m1 0h1m2 0h2m1 0h2m1 0h1M3 69.5h1m1 0h1m1 0h1m2 0h1m1 0h1m1 0h4m1 0h1m1 0h4m1 0h4m1 0h1m1 0h2m3 0h2m2 0h1m2 0h1m1 0h1m3 0h1m2 0h2m4 0h3m1 0h1m4 0h1m1 0h4m1 0h2m1 0h1m2 0h2m3 0h6m3 0h1m3 0h1m3 0h1m1 0h1m1 0h1m1 0h3m2 0h2m1 0h1m1 0h1m1 0h2m1 0h2m1 0h1m4 0h1m5 0h2m5 0h2m1 0h1m1 0h3m1 0h1m1 0h2M2 70.5h1m3 0h1m1 0h1m1 0h2m1 0h2m2 0h1m1 0h2m1 0h1m1 0h2m1 0h3m1 0h1m1 0h7m1 0h6m6 0h2m1 0h1m1 0h1m1 0h2m3 0h1m1 0h5m1 0h1m1 0h1m1 0h1m1 0h2m2 0h1m2 0h3m6 0h6m2 0h2m1 0h1m4 0h1m2 0h3m1 0h1m2 0h1m1 0h1m4 0h3m1 0h1m1 0h1m1 0h1m1 0h1m2 0h1m2 0h3m1 0h1m5 0h1m1 0h3M2 71.5h1m1 0h1m5 0h2m2 0h5m1 0h1m1 0h1m2 0h2m1 0h1m1 0h1m1 0h1m3 0h1m2 0h1m1 0h5m2 0h1m3 0h2m5 0h2m1 0h2m2 0h1m3 0h1m1 0h2m4 0h3m1 0h2m1 0h3m3 0h2m1 0h2m1 0h1m1 0h1m1 0h1m6 0h1m1 0h1m1 0h1m4 0h1m1 0h7m3 0h2m2 0h1m3 0h5m5 0h1m3 0h1m2 0h2M2 72.5h1m1 0h3m1 0h3m3 0h1m2 0h2m1 0h1m1 0h1m2 0h3m1 0h2m4 0h2m1 0h3m2 0h2m1 0h1m5 0h4m1 0h1m2 0h1m2 0h1m1 0h2m1 0h3m4 0h1m1 0h1m1 0h1m1 0h2m1 0h6m4 0h1m1 0h3m1 0h1m1 0h2m5 0h4m3 0h1m2 0h1m2 0h1m3 0h1m4 0h2m1 0h1m1 0h1m2 0h3m1 0h1m1 0h2m2 0h1m3 0h1m2 0h3M3 73.5h2m2 0h1m3 0h1m1 0h3m1 0h3m4 0h2m1 0h1m6 0h1m4 0h2m2 0h2m6 0h2m1 0h2m2 0h1m1 0h3m1 0h1m2 0h1m3 0h7m5 0h1m5 0h2m1 0h3m2 0h1m6 0h1m4 0h1m1 0h1m1 0h1m1 0h5m1 0h2m3 0h1m1 0h2m1 0h1m3 0h1m1 0h1m1 0h2m2 0h1m1 0h2m3 0h1m2 0h2m2 0h1M3 74.5h3m1 0h4m2 0h2m2 0h3m5 0h2m1 0h6m1 0h1m2 0h1m2 0h1m1 0h4m2 0h1m1 0h6m2 0h2m5 0h3m2 0h1m1 0h1m9 0h6m6 0h2m1 0h1m3 0h1m1 0h1m1 0h2m5 0h4m1 0h2m3 0h1m5 0h5m2 0h1m1 0h1m2 0h1m1 0h6m3 0h5m1 0h1M9 75.5h3m1 0h1m2 0h1m5 0h1m1 0h1m2 0h4m1 0h1m1 0h2m2 0h1m1 0h1m2 0h1m1 0h1m1 0h1m3 0h1m9 0h2m1 0h2m4 0h1m1 0h1m1 0h2m2 0h3m1 0h2m2 0h2m1 0h1m1 0h4m2 0h3m2 0h1m2 0h1m2 0h3m1 0h2m1 0h1m3 0h6m3 0h1m1 0h3m2 0h1m3 0h4m1 0h2m1 0h1m3 0h1m2 0h2m1 0h1M3 76.5h1m1 0h4m4 0h2m5 0h1m3 0h3m1 0h1m1 0h4m1 0h2m1 0h3m3 0h5m2 0h1m3 0h3m2 0h3m2 0h2m1 0h4m1 0h1m1 0h1m3 0h1m1 0h4m1 0h1m1 0h1m7 0h2m1 0h2m1 0h1m1 0h1m1 0h2m1 0h3m3 0h2m2 0h2m1 0h1m2 0h2m1 0h2m1 0h5m7 0h4m2 0h4m3 0h3M2 77.5h1m1 0h1m2 0h1m3 0h3m1 0h1m1 0h1m1 0h1m1 0h1m2 0h3m5 0h5m2 0h2m4 0h1m1 0h1m4 0h3m1 0h2m5 0h2m2 0h1m1 0h1m2 0h5m5 0h2m5 0h3m2 0h1m1 0h1m3 0h1m3 0h1m3 0h5m1 0h5m1 0h1m1 0h1m2 0h4m2 0h1m1 0h2m2 0h4m1 0h1m2 0h1m1 0h1m2 0h3m1 0h1m2 0h2M3 78.5h2m1 0h10m4 0h2m2 0h3m3 0h12m3 0h7m1 0h9m1 0h2m1 0h1m1 0h2m1 0h1m1 0h2m3 0h6m2 0h1m2 0h1m1 0h2m2 0h5m1 0h7m1 0h1m3 0h2m1 0h1m1 0h1m4 0h1m2 0h5m1 0h1m3 0h2m4 0h3m1 0h1m1 0h1m1 0h7m1 0h1M6 79.5h1m3 0h3m2 0h1m2 0h4m1 0h1m2 0h3m1 0h1m3 0h3m10 0h3m1 0h4m3 0h2m1 0h1m4 0h2m1 0h8m1 0h1m3 0h1m3 0h1m2 0h1m1 0h2m1 0h1m2 0h3m1 0h2m3 0h2m1 0h2m1 0h1m4 0h1m1 0h4m1 0h3m3 0h1m3 0h2m1 0h1m1 0h1m1 0h2m6 0h2m3 0h4M6 80.5h1m1 0h1m1 0h1m3 0h2m1 0h1m1 0h2m2 0h1m1 0h3m2 0h1m1 0h1m1 0h3m1 0h1m2 0h1m2 0h4m2 0h1m1 0h3m1 0h1m1 0h2m1 0h1m1 0h1m2 0h3m1 0h1m7 0h1m1 0h1m1 0h1m1 0h6m1 0h1m1 0h2m1 0h1m1 0h1m1 0h1m1 0h1m1 0h1m1 0h1m1 0h1m1 0h1m5 0h1m2 0h1m5 0h2m1 0h1m1 0h2m2 0h2m4 0h2m3 0h3m1 0h2m1 0h1m1 0h5M3 81.5h1m2 0h1m3 0h2m1 0h1m4 0h2m1 0h3m4 0h1m1 0h1m3 0h3m2 0h2m3 0h1m1 0h1m1 0h1m1 0h1m2 0h2m3 0h1m2 0h2m1 0h2m3 0h1m1 0h6m1 0h1m3 0h1m1 0h2m2 0h4m1 0h5m1 0h1m1 0h2m3 0h5m1 0h1m1 0h5m1 0h2m3 0h2m3 0h1m4 0h1m1 0h1m2 0h3m2 0h3m2 0h1m3 0h1m3 0h1M2 82.5h2m2 0h10m4 0h1m1 0h1m4 0h2m1 0h5m3 0h1m2 0h1m1 0h4m2 0h1m2 0h10m1 0h3m4 0h1m2 0h2m1 0h8m1 0h2m4 0h3m1 0h2m1 0h1m3 0h5m2 0h1m3 0h2m1 0h1m1 0h1m6 0h6m1 0h2m1 0h1m1 0h1m3 0h4m1 0h3m1 0h5m1 0h3M2 83.5h2m2 0h2m2 0h1m3 0h2m1 0h1m1 0h2m1 0h2m1 0h1m2 0h2m3 0h2m1 0h1m1 0h1m2 0h2m1 0h1m2 0h1m2 0h3m2 0h3m3 0h1m1 0h2m4 0h1m1 0h4m2 0h2m1 0h1m4 0h3m1 0h2m1 0h1m5 0h1m3 0h3m1 0h1m1 0h1m1 0h4m3 0h1m1 0h2m1 0h1m1 0h1m4 0h1m1 0h2m1 0h2m1 0h2m3 0h1m1 0h2m8 0h4M4 84.5h1m1 0h1m1 0h1m3 0h2m1 0h1m1 0h3m2 0h2m1 0h1m1 0h1m1 0h2m1 0h2m1 0h4m2 0h1m4 0h2m1 0h2m2 0h7m3 0h1m1 0h2m1 0h1m1 0h1m4 0h1m3 0h2m2 0h4m1 0h2m3 0h1m2 0h1m1 0h1m1 0h3m2 0h1m1 0h1m1 0h2m11 0h1m4 0h9m3 0h3m3 0h2m1 0h1m1 0h1m3 0h1m3 0h1M4 85.5h1m5 0h2m3 0h1m1 0h1m1 0h5m1 0h2m2 0h1m2 0h1m3 0h2m1 0h1m2 0h2m1 0h2m1 0h3m1 0h4m4 0h3m1 0h1m2 0h1m1 0h1m1 0h4m1 0h4m1 0h1m1 0h1m1 0h1m1 0h4m3 0h3m4 0h1m5 0h2m1 0h1m1 0h1m1 0h6m2 0h2m1 0h1m2 0h1m2 0h1m2 0h1m3 0h4m5 0h1m1 0h1m1 0h1m3 0h1m1 0h2M2 86.5h3m1 0h1m1 0h1m2 0h1m1 0h4m1 0h1m3 0h1m1 0h1m5 0h1m6 0h1m2 0h2m1 0h4m1 0h1m2 0h1m2 0h1m3 0h1m3 0h1m1 0h2m2 0h2m1 0h2m5 0h1m2 0h3m1 0h2m1 0h1m4 0h1m3 0h2m1 0h2m1 0h3m2 0h2m1 0h1m1 0h6m4 0h1m3 0h3m2 0h5m1 0h7m1 0h1m1 0h3m1 0h1m1 0h1m1 0h1M3 87.5h1m2 0h1m2 0h1m1 0h1m1 0h1m1 0h2m2 0h3m3 0h3m1 0h1m2 0h3m1 0h1m1 0h3m1 0h3m2 0h1m1 0h1m1 0h1m3 0h2m1 0h1m1 0h2m1 0h1m1 0h3m2 0h2m3 0h6m5 0h2m1 0h1m2 0h3m2 0h1m1 0h1m2 0h1m1 0h1m1 0h1m1 0h5m4 0h1m1 0h4m1 0h1m5 0h1m1 0h1m2 0h1m1 0h3m2 0h1m1 0h1m2 0h4m1 0h1m1 0h3M5 88.5h5m1 0h5m1 0h1m2 0h2m1 0h2m2 0h2m1 0h1m7 0h3m3 0h1m3 0h1m3 0h1m1 0h1m3 0h1m1 0h1m2 0h1m1 0h1m1 0h2m1 0h2m1 0h1m1 0h1m1 0h4m1 0h1m1 0h2m2 0h1m6 0h3m2 0h2m3 0h1m1 0h1m2 0h4m1 0h2m1 0h2m1 0h1m1 0h1m4 0h3m1 0h6m1 0h3m1 0h6m1 0h1m1 0h3m1 0h1m1 0h1M2 89.5h1m2 0h1m1 0h1m3 0h1m1 0h1m3 0h8m2 0h2m1 0h1m1 0h1m2 0h1m1 0h3m4 0h2m1 0h2m4 0h1m1 0h2m2 0h2m1 0h1m1 0h2m3 0h1m1 0h2m1 0h1m1 0h1m7 0h2m3 0h3m2 0h2m1 0h1m3 0h2m1 0h1m2 0h1m2 0h2m1 0h1m2 0h2m1 0h1m2 0h1m1 0h3m7 0h2m4 0h1m2 0h1m1 0h1m1 0h1m1 0h1m2 0h1m5 0h1M2 90.5h1m1 0h1m3 0h1m3 0h2m3 0h1m4 0h1m3 0h1m1 0h2m6 0h2m3 0h1m3 0h2m2 0h1m2 0h1m1 0h1m1 0h1m6 0h2m1 0h1m2 0h1m3 0h2m1 0h1m1 0h9m1 0h1m2 0h1m4 0h1m1 0h1m1 0h3m1 0h3m2 0h3m2 0h1m1 0h1m2 0h1m7 0h2m1 0h3m1 0h1m1 0h1m4 0h1m1 0h1m1 0h1m2 0h1m1 0h3m2 0h2m1 0h1M3 91.5h3m3 0h2m3 0h1m4 0h2m2 0h2m1 0h1m2 0h1m3 0h3m1 0h2m3 0h1m2 0h2m1 0h1m1 0h2m4 0h1m1 0h4m2 0h4m1 0h1m1 0h1m4 0h2m2 0h2m1 0h1m1 0h2m4 0h4m3 0h2m2 0h9m1 0h1m2 0h1m1 0h1m2 0h1m1 0h1m1 0h3m2 0h1m2 0h1m3 0h1m1 0h6m2 0h1m7 0h3m1 0h1M2 92.5h2m1 0h1m2 0h1m3 0h1m1 0h1m1 0h2m1 0h1m1 0h1m1 0h3m2 0h1m2 0h1m7 0h1m1 0h3m6 0h1m1 0h2m1 0h2m2 0h3m1 0h1m1 0h1m1 0h2m1 0h1m6 0h5m1 0h2m1 0h1m1 0h2m1 0h1m4 0h1m3 0h2m3 0h1m1 0h2m1 0h2m2 0h3m2 0h1m1 0h2m1 0h1m1 0h1m3 0h6m4 0h1m3 0h1m1 0h1m1 0h1m1 0h1m1 0h3m3 0h1M3 93.5h2m1 0h2m2 0h1m2 0h1m4 0h3m2 0h2m2 0h3m2 0h1m6 0h1m1 0h1m1 0h2m1 0h1m1 0h6m2 0h1m1 0h2m1 0h5m3 0h1m1 0h4m1 0h1m1 0h1m6 0h1m4 0h1m1 0h1m1 0h1m1 0h1m4 0h1m2 0h1m1 0h2m2 0h1m2 0h1m1 0h2m2 0h1m3 0h1m1 0h1m1 0h3m3 0h1m1 0h1m1 0h4m1 0h1m4 0h1m1 0h2m1 0h1m4 0h1M5 94.5h4m4 0h1m2 0h3m1 0h1m1 0h2m4 0h1m4 0h1m3 0h1m1 0h2m2 0h2m3 0h1m1 0h2m1 0h2m2 0h1m3 0h1m1 0h1m2 0h1m1 0h2m1 0h1m1 0h2m3 0h1m1 0h3m1 0h1m1 0h1m1 0h1m3 0h2m1 0h4m1 0h1m1 0h1m1 0h2m7 0h4m1 0h2m3 0h1m1 0h1m1 0h7m2 0h1m1 0h1m6 0h1m2 0h3m1 0h5M3 95.5h1m2 0h1m4 0h1m1 0h1m4 0h1m1 0h2m1 0h3m1 0h1m1 0h1m1 0h1m1 0h1m1 0h3m3 0h1m1 0h1m3 0h2m3 0h1m2 0h2m1 0h2m1 0h1m3 0h5m6 0h3m2 0h1m4 0h2m2 0h3m1 0h2m2 0h2m3 0h2m1 0h8m3 0h1m2 0h6m3 0h2m1 0h1m2 0h6m1 0h1m2 0h1m3 0h1m3 0h1m1 0h1m1 0h1M5 96.5h1m1 0h3m1 0h1m3 0h1m4 0h3m2 0h1m1 0h2m2 0h1m5 0h2m4 0h4m1 0h1m1 0h1m2 0h4m2 0h1m1 0h1m1 0h1m1 0h4m1 0h1m2 0h1m1 0h1m4 0h1m2 0h2m1 0h1m1 0h1m1 0h1m3 0h2m1 0h1m2 0h2m3 0h1m6 0h2m1 0h1m1 0h1m6 0h1m1 0h1m1 0h3m1 0h1m1 0h2m1 0h1m1 0h3m3 0h2m3 0h1m1 0h1m1 0h2m1 0h2M3 97.5h1m1 0h1m3 0h4m1 0h1m1 0h2m1 0h1m4 0h1m1 0h2m1 0h2m6 0h2m2 0h2m2 0h1m1 0h2m1 0h2m3 0h1m1 0h1m1 0h4m1 0h2m3 0h1m2 0h3m1 0h2m3 0h1m7 0h3m2 0h2m3 0h3m5 0h1m1 0h1m2 0h1m1 0h1m1 0h3m1 0h3m1 0h2m2 0h1m4 0h3m4 0h2m4 0h2m1 0h3m1 0h1m3 0h2M2 98.5h3m1 0h1m1 0h1m1 0h1m4 0h2m1 0h1m2 0h1m1 0h3m3 0h1m1 0h1m2 0h1m1 0h1m1 0h1m1 0h6m1 0h2m1 0h2m1 0h5m2 0h1m1 0h1m1 0h1m1 0h3m1 0h1m1 0h1m3 0h1m1 0h1m1 0h4m1 0h2m4 0h1m1 0h1m1 0h4m3 0h1m1 0h1m9 0h3m1 0h1m6 0h1m2 0h2m1 0h2m3 0h1m1 0h1m2 0h1m2 0h7m1 0h1m3 0h2M2 99.5h2m1 0h1m3 0h2m7 0h1m1 0h1m1 0h1m2 0h4m2 0h1m3 0h1m1 0h2m1 0h1m1 0h2m1 0h1m2 0h5m3 0h1m1 0h1m1 0h1m1 0h2m1 0h1m3 0h1m1 0h3m1 0h1m1 0h1m3 0h1m3 0h1m1 0h1m1 0h1m1 0h2m1 0h1m2 0h3m2 0h3m1 0h2m2 0h1m1 0h1m4 0h1m1 0h4m1 0h1m2 0h1m7 0h4m1 0h1m1 0h1m2 0h1m1 0h1m2 0h2m4 0h1M4 100.5h1m1 0h3m1 0h1m5 0h1m1 0h3m4 0h2m1 0h7m3 0h1m1 0h1m1 0h4m4 0h2m3 0h1m1 0h1m1 0h2m4 0h7m3 0h1m1 0h5m2 0h1m1 0h1m1 0h1m1 0h2m1 0h1m2 0h2m2 0h2m5 0h1m1 0h3m1 0h1m1 0h2m2 0h1m1 0h2m3 0h3m1 0h2m1 0h5m5 0h1m1 0h2m3 0h5m1 0h3M2 101.5h2m1 0h2m3 0h1m2 0h4m1 0h2m3 0h3m1 0h2m1 0h2m1 0h4m2 0h2m1 0h3m2 0h2m1 0h1m1 0h1m4 0h1m3 0h2m1 0h1m7 0h3m1 0h2m7 0h1m4 0h1m1 0h1m1 0h2m4 0h2m2 0h1m4 0h1m3 0h1m1 0h2m2 0h1m2 0h1m2 0h1m2 0h2m5 0h1m1 0h6m4 0h1m1 0h1m3 0h1m1 0h1m1 0h1M2 102.5h1m3 0h7m3 0h1m2 0h4m1 0h1m1 0h1m1 0h1m1 0h6m1 0h2m2 0h1m1 0h4m3 0h1m1 0h1m1 0h5m1 0h1m1 0h2m1 0h1m1 0h1m1 0h1m1 0h2m3 0h1m1 0h6m2 0h1m4 0h1m1 0h1m1 0h1m2 0h1m2 0h7m3 0h1m2 0h5m7 0h8m1 0h4m2 0h4m1 0h1m2 0h8M2 103.5h3m1 0h1m3 0h1m2 0h2m1 0h1m1 0h1m2 0h2m1 0h3m2 0h2m3 0h1m3 0h1m1 0h2m2 0h2m4 0h1m3 0h1m3 0h2m4 0h1m4 0h1m4 0h1m1 0h3m3 0h1m2 0h2m2 0h2m1 0h1m1 0h2m1 0h2m3 0h1m3 0h1m2 0h2m4 0h1m1 0h1m1 0h4m1 0h3m3 0h3m4 0h8m1 0h1m2 0h2m3 0h2m1 0h1M3 104.5h1m2 0h1m1 0h1m1 0h1m1 0h3m3 0h1m2 0h2m3 0h1m1 0h3m1 0h1m1 0h1m1 0h2m1 0h2m1 0h1m1 0h2m4 0h2m1 0h2m1 0h1m1 0h1m2 0h1m1 0h1m2 0h3m1 0h1m3 0h2m1 0h2m1 0h1m1 0h4m2 0h2m3 0h8m1 0h1m1 0h1m1 0h1m1 0h1m1 0h1m2 0h1m2 0h1m4 0h1m1 0h1m1 0h2m1 0h1m1 0h2m2 0h1m11 0h1m1 0h3m1 0h1m1 0h2m1 0h2M2 105.5h1m1 0h3m3 0h1m3 0h1m2 0h1m5 0h1m4 0h1m1 0h1m3 0h1m2 0h1m3 0h1m2 0h1m1 0h1m7 0h1m3 0h1m2 0h2m1 0h1m7 0h1m1 0h1m1 0h1m1 0h1m3 0h2m3 0h2m1 0h2m2 0h2m1 0h1m2 0h3m3 0h2m1 0h5m7 0h1m1 0h1m1 0h2m3 0h2m1 0h3m3 0h2m6 0h1m1 0h2m3 0h1m2 0h1M2 106.5h1m3 0h6m3 0h3m1 0h7m2 0h1m1 0h6m1 0h2m5 0h1m1 0h2m1 0h1m1 0h1m2 0h8m1 0h2m2 0h3m1 0h1m4 0h8m1 0h2m4 0h1m1 0h1m1 0h1m1 0h3m1 0h6m4 0h1m1 0h2m1 0h1m1 0h1m4 0h1m2 0h5m1 0h1m3 0h1m2 0h1m2 0h4m1 0h2m1 0h8M3 107.5h1m1 0h1m3 0h1m1 0h1m2 0h1m6 0h2m2 0h2m1 0h4m1 0h1m2 0h1m4 0h2m2 0h1m3 0h3m3 0h1m1 0h1m1 0h1m2 0h3m3 0h4m1 0h1m2 0h7m4 0h1m1 0h4m1 0h1m2 0h2m2 0h2m2 0h6m1 0h1m2 0h1m1 0h1m1 0h1m1 0h2m1 0h1m2 0h2m1 0h2m4 0h2m1 0h2m1 0h1m1 0h1m2 0h2m2 0h4m1 0h2M2 108.5h1m3 0h5m3 0h1m2 0h4m1 0h1m1 0h1m3 0h1m5 0h3m2 0h5m1 0h2m1 0h2m1 0h4m2 0h2m4 0h1m1 0h4m1 0h2m1 0h2m2 0h2m1 0h2m1 0h3m1 0h2m1 0h2m1 0h2m1 0h3m1 0h1m1 0h3m1 0h1m1 0h5m2 0h3m1 0h1m3 0h3m1 0h1m1 0h3m1 0h2m4 0h1m1 0h1m4 0h1m3 0h1m2 0h2m2 0h2M2 109.5h1m1 0h1m2 0h1m1 0h2m1 0h4m1 0h3m1 0h1m9 0h2m2 0h2m1 0h2m2 0h6m3 0h1m1 0h3m3 0h2m1 0h3m4 0h1m1 0h2m1 0h3m2 0h3m2 0h1m4 0h2m1 0h1m2 0h1m4 0h3m4 0h2m3 0h1m2 0h2m1 0h3m1 0h1m1 0h1m1 0h1m1 0h3m3 0h2m1 0h1m1 0h2m1 0h1m9 0h1m1 0h1m2 0h1M3 110.5h1m1 0h2m1 0h1m2 0h1m1 0h1m5 0h1m4 0h1m3 0h4m2 0h5m1 0h1m1 0h1m4 0h1m2 0h4m1 0h1m1 0h4m1 0h5m1 0h2m3 0h3m5 0h1m1 0h6m3 0h1m4 0h2m1 0h1m3 0h2m3 0h1m4 0h5m2 0h1m1 0h1m2 0h1m1 0h2m2 0h1m1 0h1m1 0h2m1 0h1m3 0h2m3 0h1m1 0h4m1 0h3M3 111.5h2m1 0h2m5 0h5m1 0h1m1 0h3m1 0h2m1 0h2m2 0h1m1 0h2m4 0h1m9 0h1m2 0h4m7 0h3m1 0h1m2 0h2m1 0h2m1 0h1m2 0h4m1 0h1m1 0h1m4 0h3m3 0h1m2 0h1m3 0h1m1 0h1m1 0h2m11 0h1m1 0h1m3 0h3m1 0h1m5 0h1m3 0h1m4 0h1m1 0h1m1 0h2m4 0h1M2 112.5h4m2 0h1m3 0h1m1 0h1m6 0h2m3 0h3m2 0h3m1 0h2m3 0h1m1 0h3m1 0h2m1 0h3m3 0h1m3 0h1m1 0h1m1 0h1m1 0h2m1 0h1m1 0h1m2 0h1m6 0h2m1 0h1m1 0h1m2 0h1m1 0h1m3 0h1m1 0h1m1 0h1m1 0h1m2 0h5m3 0h2m1 0h2m1 0h1m4 0h1m3 0h2m3 0h1m2 0h1m2 0h1m5 0h1m2 0h2m1 0h1m5 0h1m1 0h2M2 113.5h1m2 0h2m3 0h1m1 0h4m1 0h1m1 0h4m1 0h2m1 0h2m3 0h3m3 0h1m1 0h2m1 0h1m1 0h2m1 0h1m1 0h1m2 0h3m2 0h3m1 0h1m4 0h1m1 0h1m1 0h2m1 0h4m1 0h2m4 0h1m1 0h1m2 0h1m1 0h4m3 0h5m1 0h1m1 0h2m1 0h1m3 0h3m1 0h3m1 0h2m1 0h1m1 0h1m1 0h2m3 0h2m1 0h2m1 0h1m5 0h2m6 0h2m2 0h1M4 114.5h1m3 0h1m4 0h1m1 0h3m4 0h1m1 0h3m2 0h1m1 0h6m5 0h1m2 0h2m3 0h1m1 0h1m1 0h7m1 0h3m1 0h1m5 0h3m1 0h1m2 0h1m1 0h1m3 0h4m3 0h1m2 0h1m2 0h1m1 0h2m2 0h1m4 0h1m4 0h1m1 0h1m1 0h1m4 0h1m2 0h1m2 0h1m1 0h7m5 0h3m1 0h4m4 0h2m1 0h1M2 115.5h1m1 0h2m1 0h1m2 0h4m1 0h1m5 0h1m2 0h1m2 0h1m2 0h1m1 0h4m3 0h2m3 0h4m1 0h1m2 0h2m1 0h1m2 0h1m4 0h1m5 0h3m1 0h5m2 0h1m1 0h1m2 0h2m5 0h1m1 0h1m2 0h3m1 0h4m1 0h1m1 0h3m1 0h1m1 0h1m1 0h2m2 0h6m2 0h2m1 0h2m2 0h1m1 0h4m1 0h2m8 0h1m1 0h2M2 116.5h1m2 0h9m4 0h4m1 0h3m4 0h1m1 0h1m2 0h4m4 0h1m1 0h1m1 0h3m2 0h4m2 0h2m1 0h1m3 0h2m1 0h2m7 0h2m2 0h1m1 0h3m2 0h1m5 0h1m1 0h3m1 0h5m1 0h1m1 0h1m1 0h4m1 0h1m1 0h3m1 0h1m1 0h3m2 0h1m3 0h3m4 0h1m4 0h3m2 0h3m2 0h2m1 0h2M2 117.5h1m2 0h3m1 0h3m5 0h3m1 0h1m5 0h3m2 0h1m2 0h3m2 0h1m1 0h1m1 0h5m1 0h1m1 0h2m1 0h3m1 0h2m1 0h1m1 0h1m2 0h1m3 0h4m2 0h1m2 0h4m4 0h3m1 0h1m1 0h1m1 0h2m1 0h5m5 0h1m3 0h1m1 0h5m1 0h1m2 0h2m1 0h1m2 0h1m3 0h1m3 0h1m1 0h1m5 0h1m3 0h1m3 0h1m3 0h1M3 118.5h3m1 0h4m2 0h1m2 0h2m4 0h2m4 0h1m1 0h2m2 0h2m1 0h1m1 0h2m2 0h1m2 0h1m2 0h3m2 0h2m1 0h1m1 0h4m1 0h1m4 0h1m2 0h3m1 0h2m1 0h1m1 0h1m1 0h1m1 0h3m1 0h1m3 0h1m1 0h4m5 0h3m4 0h1m2 0h5m4 0h1m1 0h4m2 0h3m1 0h2m1 0h2m3 0h2m1 0h1m1 0h1m1 0h2m3 0h4M4 119.5h3m2 0h2m2 0h1m1 0h2m1 0h3m3 0h1m4 0h2m8 0h1m4 0h2m1 0h2m1 0h1m1 0h3m1 0h8m1 0h2m1 0h1m4 0h1m1 0h1m9 0h3m1 0h1m2 0h2m1 0h1m3 0h1m2 0h2m4 0h3m1 0h2m3 0h1m2 0h3m1 0h1m2 0h2m1 0h1m1 0h2m1 0h4m2 0h4m2 0h1m1 0h1m2 0h1m2 0h2M2 120.5h1m1 0h1m2 0h2m1 0h1m5 0h4m1 0h2m2 0h1m1 0h2m1 0h3m3 0h1m5 0h1m3 0h2m1 0h1m1 0h2m1 0h2m1 0h1m2 0h1m2 0h1m2 0h1m1 0h1m1 0h2m3 0h1m1 0h2m4 0h7m5 0h1m1 0h1m1 0h2m3 0h5m1 0h2m1 0h5m1 0h4m1 0h3m7 0h2m1 0h1m7 0h3m1 0h2m1 0h1m5 0h1M3 121.5h1m1 0h1m1 0h1m5 0h2m2 0h2m1 0h1m1 0h1m2 0h2m1 0h2m2 0h2m2 0h2m1 0h3m3 0h2m2 0h2m1 0h1m2 0h3m4 0h1m1 0h1m2 0h1m4 0h1m1 0h1m1 0h1m3 0h4m1 0h1m4 0h1m1 0h1m2 0h1m3 0h1m1 0h3m3 0h2m1 0h2m1 0h2m1 0h2m2 0h2m1 0h2m8 0h3m1 0h1m2 0h1m2 0h1m2 0h2m1 0h1m2 0h4m2 0h1M2 122.5h2m1 0h2m1 0h4m1 0h5m4 0h1m1 0h1m1 0h1m2 0h1m2 0h1m4 0h2m1 0h1m2 0h2m1 0h1m2 0h1m2 0h3m2 0h1m1 0h1m2 0h3m3 0h1m2 0h2m2 0h3m4 0h1m1 0h1m1 0h1m5 0h2m1 0h1m1 0h2m1 0h1m3 0h1m1 0h2m2 0h1m3 0h6m1 0h1m3 0h2m1 0h1m3 0h3m1 0h1m1 0h2m4 0h8m1 0h1m1 0h1m2 0h1M2 123.5h3m2 0h1m2 0h2m1 0h3m1 0h1m2 0h3m4 0h3m1 0h3m2 0h1m2 0h2m1 0h1m1 0h1m5 0h1m3 0h1m2 0h3m1 0h2m5 0h1m2 0h2m1 0h1m1 0h1m3 0h1m1 0h1m4 0h1m1 0h1m1 0h3m1 0h1m2 0h2m8 0h1m2 0h2m4 0h1m1 0h1m1 0h2m1 0h1m3 0h1m1 0h1m1 0h1m3 0h1m4 0h2m1 0h1m4 0h1m2 0h2m2 0h1M2 124.5h1m2 0h1m1 0h4m1 0h6m1 0h1m3 0h1m2 0h2m2 0h1m4 0h1m2 0h1m2 0h1m1 0h1m3 0h3m1 0h2m8 0h1m5 0h4m4 0h1m2 0h1m1 0h1m3 0h1m3 0h2m3 0h1m1 0h2m1 0h1m1 0h3m1 0h1m1 0h2m1 0h1m9 0h2m2 0h4m2 0h4m1 0h1m1 0h1m3 0h2m1 0h1m1 0h2m1 0h2m1 0h1m2 0h2m2 0h1M2 125.5h3m5 0h2m1 0h1m4 0h3m2 0h2m6 0h3m2 0h1m1 0h1m1 0h1m1 0h1m1 0h4m3 0h2m3 0h2m1 0h1m2 0h1m1 0h2m3 0h1m2 0h1m1 0h4m1 0h2m7 0h4m1 0h3m3 0h5m3 0h3m1 0h1m3 0h3m1 0h1m2 0h1m1 0h1m1 0h2m1 0h2m2 0h3m1 0h1m2 0h3m2 0h3m1 0h1m2 0h3m3 0h1M5 126.5h6m2 0h3m2 0h3m1 0h1m1 0h2m4 0h5m1 0h1m2 0h1m1 0h5m2 0h1m1 0h1m3 0h5m2 0h1m1 0h2m4 0h3m1 0h2m1 0h1m1 0h6m1 0h2m1 0h1m2 0h1m3 0h1m1 0h3m1 0h7m3 0h1m2 0h3m1 0h1m4 0h1m1 0h13m3 0h4m3 0h9m1 0h1M2 127.5h2m2 0h1m3 0h1m1 0h1m3 0h1m1 0h1m2 0h1m3 0h6m3 0h4m1 0h2m1 0h2m1 0h1m4 0h1m3 0h1m3 0h1m1 0h1m1 0h1m2 0h1m1 0h5m1 0h3m1 0h2m3 0h1m2 0h2m3 0h3m8 0h2m3 0h1m1 0h3m1 0h1m2 0h1m1 0h1m2 0h3m1 0h1m1 0h1m3 0h2m5 0h1m3 0h2m1 0h1m2 0h1m2 0h1m3 0h2M3 128.5h1m2 0h1m1 0h1m1 0h1m3 0h3m1 0h1m2 0h1m1 0h1m2 0h2m2 0h1m1 0h1m1 0h1m4 0h1m1 0h2m5 0h2m1 0h1m2 0h1m1 0h1m1 0h3m2 0h1m1 0h1m2 0h4m6 0h1m1 0h1m1 0h4m2 0h3m3 0h1m2 0h2m1 0h3m1 0h1m1 0h2m2 0h1m1 0h2m2 0h1m3 0h1m5 0h1m1 0h1m1 0h2m1 0h2m1 0h2m2 0h2m1 0h4m1 0h1m1 0h1m1 0h1m1 0h5M2 129.5h1m1 0h3m3 0h2m1 0h1m1 0h6m1 0h3m1 0h1m1 0h3m3 0h1m3 0h1m2 0h1m2 0h3m5 0h1m1 0h1m3 0h5m1 0h2m6 0h3m1 0h1m1 0h1m3 0h1m2 0h1m2 0h4m2 0h2m3 0h2m1 0h1m3 0h1m2 0h2m4 0h3m1 0h1m2 0h1m2 0h2m3 0h1m3 0h2m1 0h4m5 0h2m1 0h2m3 0h1m2 0h1M2 130.5h1m1 0h7m4 0h5m1 0h1m4 0h1m2 0h8m1 0h3m1 0h4m1 0h2m4 0h8m1 0h1m1 0h1m1 0h3m1 0h2m2 0h1m1 0h7m3 0h1m2 0h1m1 0h1m1 0h1m1 0h4m1 0h7m4 0h1m1 0h4m9 0h9m1 0h4m3 0h2m1 0h1m1 0h9m1 0h1M2 131.5h3m4 0h5m1 0h1m2 0h2m1 0h4m1 0h2m5 0h5m2 0h4m1 0h1m3 0h1m7 0h3m1 0h1m1 0h1m1 0h2m4 0h1m1 0h1m4 0h1m1 0h1m1 0h1m3 0h1m3 0h3m2 0h1m2 0h1m3 0h3m1 0h3m1 0h4m5 0h2m1 0h1m1 0h5m2 0h1m1 0h1m1 0h2m1 0h1m2 0h2m2 0h1m4 0h2m3 0h1m1 0h1M2 132.5h1m3 0h4m2 0h1m1 0h1m1 0h5m2 0h2m1 0h1m1 0h1m1 0h3m1 0h2m2 0h2m1 0h3m1 0h2m1 0h1m2 0h3m1 0h2m2 0h5m1 0h4m1 0h1m6 0h4m1 0h1m1 0h1m3 0h1m4 0h5m7 0h1m1 0h1m3 0h1m1 0h6m1 0h1m1 0h4m1 0h2m1 0h1m1 0h4m4 0h2m3 0h2m1 0h1m3 0h1m2 0h1m2 0h1M4 133.5h1m1 0h2m1 0h1m4 0h2m1 0h3m1 0h1m1 0h2m1 0h1m2 0h2m1 0h1m2 0h1m2 0h1m1 0h2m1 0h1m2 0h2m1 0h2m1 0h1m1 0h1m1 0h1m1 0h1m3 0h1m1 0h2m1 0h1m1 0h1m1 0h1m2 0h4m1 0h2m2 0h1m3 0h2m1 0h1m4 0h1m1 0h1m2 0h2m1 0h2m1 0h1m1 0h1m4 0h2m1 0h1m1 0h2m1 0h2m3 0h1m2 0h1m1 0h1m1 0h1m5 0h3m3 0h3m2 0h2m2 0h1M2 134.5h3m3 0h4m1 0h1m1 0h2m2 0h1m2 0h5m2 0h3m1 0h1m2 0h1m1 0h1m1 0h3m1 0h1m6 0h4m1 0h1m2 0h1m1 0h2m2 0h1m1 0h2m2 0h1m2 0h1m1 0h1m2 0h2m1 0h1m2 0h5m1 0h2m2 0h1m1 0h3m1 0h1m1 0h1m1 0h1m5 0h1m1 0h4m1 0h1m6 0h2m3 0h4m5 0h1m1 0h1m2 0h1m1 0h1m1 0h4m3 0h2m1 0h1M2 135.5h1m1 0h4m4 0h1m5 0h1m1 0h1m4 0h2m1 0h1m1 0h1m2 0h1m1 0h1m1 0h2m1 0h6m2 0h4m1 0h1m3 0h1m4 0h1m6 0h4m3 0h1m1 0h1m3 0h1m4 0h1m2 0h1m1 0h4m1 0h1m1 0h1m1 0h1m5 0h4m1 0h1m4 0h1m2 0h3m1 0h3m1 0h1m2 0h2m3 0h4m1 0h2m4 0h1m2 0h1m1 0h1m1 0h2m2 0h1M4 136.5h1m1 0h1m1 0h1m1 0h3m1 0h1m3 0h1m2 0h1m1 0h1m6 0h3m1 0h5m2 0h1m1 0h1m2 0h1m2 0h1m4 0h3m1 0h1m5 0h1m1 0h5m6 0h1m1 0h2m1 0h1m1 0h1m1 0h4m1 0h1m2 0h1m1 0h3m1 0h1m1 0h1m1 0h1m4 0h3m2 0h1m2 0h1m1 0h1m3 0h2m3 0h1m1 0h3m1 0h1m1 0h1m4 0h1m1 0h1m1 0h2m2 0h1m1 0h6m1 0h1M2 137.5h2m3 0h1m2 0h2m2 0h2m2 0h1m2 0h1m2 0h1m1 0h2m1 0h1m1 0h2m1 0h1m5 0h1m3 0h1m4 0h5m3 0h2m1 0h1m1 0h2m5 0h1m1 0h4m1 0h1m1 0h1m2 0h1m1 0h1m5 0h2m1 0h3m2 0h1m3 0h2m1 0h1m1 0h2m2 0h3m1 0h3m1 0h2m4 0h1m1 0h1m4 0h1m2 0h1m4 0h2m6 0h1m5 0h3m1 0h1M2 138.5h1m2 0h1m2 0h3m1 0h4m1 0h1m1 0h1m1 0h1m3 0h1m1 0h2m1 0h1m5 0h2m1 0h2m1 0h6m1 0h1m5 0h1m4 0h1m1 0h4m1 0h5m2 0h1m3 0h4m3 0h2m5 0h1m2 0h1m1 0h2m1 0h1m4 0h1m3 0h1m1 0h1m1 0h4m1 0h1m6 0h2m3 0h3m1 0h1m1 0h1m1 0h1m2 0h4m1 0h1m1 0h3m3 0h3M4 139.5h2m4 0h2m2 0h1m5 0h5m2 0h2m3 0h1m1 0h2m1 0h1m1 0h1m3 0h1m3 0h2m3 0h3m1 0h1m3 0h2m1 0h3m6 0h3m3 0h1m2 0h1m1 0h1m1 0h1m1 0h1m2 0h1m1 0h2m4 0h2m1 0h1m1 0h1m1 0h2m1 0h1m1 0h4m3 0h1m1 0h4m3 0h2m1 0h1m2 0h2m1 0h6m1 0h1m2 0h1m3 0h1m3 0h1m1 0h1M2 140.5h5m1 0h2m1 0h1m2 0h1m1 0h2m1 0h2m1 0h2m2 0h2m2 0h1m2 0h1m1 0h1m3 0h3m1 0h2m1 0h1m2 0h3m4 0h2m1 0h2m2 0h1m2 0h1m1 0h1m8 0h1m2 0h3m3 0h3m4 0h4m1 0h3m1 0h2m3 0h1m2 0h1m1 0h2m1 0h4m1 0h2m1 0h2m3 0h1m4 0h3m3 0h3m1 0h2m1 0h1m4 0h8M3 141.5h2m1 0h2m2 0h3m1 0h5m2 0h2m1 0h1m1 0h1m2 0h1m1 0h2m1 0h2m2 0h1m3 0h2m1 0h2m1 0h5m1 0h2m1 0h2m3 0h3m7 0h1m1 0h1m1 0h1m4 0h1m1 0h2m3 0h4m1 0h2m5 0h3m2 0h4m1 0h1m1 0h2m1 0h2m2 0h4m1 0h1m1 0h1m1 0h4m1 0h3m1 0h1m2 0h2m8 0h1m6 0h1M3 142.5h1m2 0h1m1 0h1m3 0h1m1 0h3m3 0h1m3 0h3m2 0h1m1 0h2m1 0h1m4 0h1m1 0h1m2 0h2m1 0h3m4 0h2m2 0h3m1 0h9m2 0h2m2 0h1m1 0h2m1 0h2m1 0h2m2 0h1m3 0h1m1 0h2m1 0h1m1 0h2m1 0h3m8 0h3m1 0h1m6 0h7m1 0h2m1 0h2m1 0h1m1 0h1m1 0h2m2 0h3m3 0h5M2 143.5h1m1 0h2m3 0h4m3 0h1m3 0h3m2 0h8m2 0h2m1 0h1m1 0h1m1 0h1m1 0h1m2 0h2m1 0h2m3 0h2m1 0h2m3 0h2m2 0h2m1 0h1m2 0h1m7 0h2m3 0h2m1 0h1m1 0h5m1 0h2m3 0h2m1 0h1m1 0h4m1 0h1m4 0h1m1 0h4m3 0h1m1 0h2m1 0h2m5 0h1m2 0h2m1 0h1m10 0h1m1 0h1M3 144.5h1m4 0h1m1 0h1m1 0h2m3 0h1m1 0h2m1 0h2m1 0h1m1 0h1m2 0h1m1 0h2m2 0h5m2 0h1m1 0h1m4 0h2m1 0h5m1 0h1m1 0h1m1 0h1m1 0h2m1 0h4m1 0h1m1 0h1m1 0h1m1 0h1m2 0h5m1 0h2m3 0h5m2 0h1m1 0h1m2 0h1m1 0h1m8 0h2m1 0h2m1 0h2m1 0h4m2 0h5m4 0h2m3 0h2m2 0h4m2 0h1m1 0h2M2 145.5h1m6 0h3m3 0h4m3 0h2m1 0h5m3 0h2m3 0h1m2 0h1m1 0h1m1 0h1m1 0h1m1 0h1m1 0h1m4 0h2m1 0h1m2 0h3m6 0h2m1 0h7m9 0h1m4 0h10m1 0h2m3 0h1m2 0h1m2 0h1m1 0h1m2 0h1m3 0h1m4 0h1m2 0h2m4 0h1m1 0h2m1 0h1m4 0h1m1 0h1m1 0h1m3 0h1M2 146.5h4m2 0h1m2 0h2m2 0h1m1 0h1m1 0h2m1 0h2m1 0h1m3 0h2m7 0h1m1 0h3m1 0h1m1 0h1m2 0h2m3 0h1m2 0h1m2 0h1m2 0h1m1 0h2m1 0h1m1 0h2m1 0h2m3 0h6m1 0h3m1 0h1m3 0h1m2 0h1m1 0h1m1 0h2m1 0h1m1 0h1m1 0h1m3 0h1m1 0h2m1 0h1m1 0h1m3 0h2m1 0h1m4 0h2m1 0h1m1 0h3m1 0h1m3 0h1m2 0h1m1 0h4m1 0h6M2 147.5h1m3 0h2m2 0h2m1 0h7m1 0h2m4 0h1m1 0h1m1 0h3m1 0h2m1 0h1m1 0h2m3 0h1m1 0h2m1 0h1m1 0h5m2 0h2m1 0h1m3 0h1m1 0h2m1 0h1m1 0h1m1 0h2m1 0h2m1 0h1m3 0h2m2 0h2m1 0h1m2 0h1m1 0h3m1 0h1m1 0h1m3 0h6m6 0h2m1 0h1m1 0h2m6 0h1m2 0h4m1 0h1m1 0h2m3 0h1m2 0h2m1 0h1m1 0h1m1 0h1M2 148.5h2m1 0h2m1 0h1m1 0h2m1 0h3m1 0h1m2 0h3m1 0h1m4 0h1m3 0h2m4 0h1m1 0h1m1 0h2m1 0h1m3 0h1m5 0h1m1 0h1m1 0h1m1 0h2m1 0h5m3 0h1m1 0h1m1 0h1m1 0h2m1 0h4m1 0h1m2 0h1m4 0h1m2 0h1m1 0h1m1 0h1m1 0h5m1 0h1m2 0h3m1 0h1m1 0h3m3 0h1m1 0h5m1 0h3m5 0h1m2 0h3m1 0h2m1 0h7M2 149.5h5m6 0h2m1 0h1m1 0h2m2 0h3m1 0h3m1 0h1m2 0h3m1 0h1m1 0h1m1 0h5m1 0h2m3 0h4m5 0h2m1 0h2m3 0h1m1 0h2m1 0h1m1 0h3m1 0h2m2 0h1m3 0h4m2 0h1m1 0h2m1 0h1m1 0h1m1 0h2m1 0h3m1 0h1m1 0h3m1 0h1m2 0h2m10 0h1m7 0h5m1 0h2m4 0h1m6 0h1M2 150.5h1m1 0h1m2 0h2m2 0h2m3 0h1m1 0h1m1 0h1m2 0h5m2 0h6m1 0h5m1 0h3m1 0h1m3 0h9m1 0h5m1 0h3m1 0h3m4 0h5m1 0h3m1 0h2m2 0h2m1 0h1m1 0h2m3 0h6m1 0h1m3 0h6m4 0h1m1 0h8m1 0h1m6 0h2m1 0h1m1 0h11m1 0h1M10 151.5h1m1 0h2m1 0h1m3 0h1m2 0h2m1 0h1m1 0h2m1 0h1m3 0h1m8 0h4m1 0h3m1 0h3m3 0h2m1 0h1m1 0h3m1 0h2m4 0h2m2 0h2m3 0h1m3 0h1m2 0h1m2 0h2m3 0h3m2 0h1m3 0h5m1 0h1m2 0h1m1 0h1m1 0h4m1 0h3m3 0h1m1 0h1m2 0h1m1 0h2m2 0h3m6 0h1m3 0h1M2 152.5h7m2 0h2m1 0h1m2 0h4m2 0h2m2 0h1m2 0h1m1 0h1m1 0h1m2 0h2m4 0h3m2 0h3m1 0h3m1 0h1m1 0h1m1 0h1m2 0h1m1 0h1m2 0h1m1 0h1m4 0h1m2 0h1m1 0h1m1 0h7m4 0h1m1 0h4m1 0h1m1 0h1m1 0h1m1 0h1m2 0h1m3 0h1m1 0h1m1 0h2m7 0h1m1 0h1m1 0h1m1 0h1m1 0h1m4 0h3m1 0h8m1 0h1m1 0h2m2 0h1M2 153.5h1m5 0h1m1 0h1m3 0h1m1 0h1m1 0h1m3 0h3m1 0h5m3 0h2m1 0h2m1 0h5m2 0h1m3 0h4m3 0h1m2 0h2m1 0h2m1 0h1m3 0h4m1 0h3m3 0h4m1 0h1m2 0h1m1 0h2m1 0h2m3 0h1m1 0h1m3 0h1m1 0h2m7 0h2m2 0h2m2 0h2m3 0h2m1 0h1m3 0h1m2 0h1m4 0h1m3 0h2m3 0h1m2 0h2M2 154.5h1m1 0h3m1 0h1m1 0h2m2 0h1m1 0h1m5 0h5m1 0h8m1 0h1m4 0h1m1 0h1m4 0h1m1 0h8m2 0h6m1 0h1m1 0h1m1 0h1m1 0h2m1 0h8m1 0h1m4 0h2m4 0h3m1 0h6m2 0h1m3 0h4m9 0h7m1 0h6m1 0h1m2 0h1m2 0h2m1 0h7m1 0h1M2 155.5h1m1 0h3m1 0h1m1 0h3m7 0h1m4 0h2m2 0h2m1 0h1m1 0h1m1 0h1m1 0h1m1 0h6m1 0h1m1 0h1m1 0h3m1 0h1m2 0h1m2 0h1m3 0h2m1 0h1m1 0h2m2 0h2m1 0h1m1 0h2m2 0h1m3 0h1m4 0h2m1 0h1m2 0h1m2 0h1m3 0h1m2 0h1m1 0h1m1 0h2m5 0h4m1 0h5m1 0h4m3 0h2m2 0h5m4 0h1m1 0h1m1 0h2m2 0h1M2 156.5h1m1 0h3m1 0h1m1 0h1m1 0h1m1 0h1m3 0h1m4 0h1m1 0h1m1 0h1m2 0h7m4 0h5m1 0h4m1 0h4m1 0h2m1 0h1m2 0h1m1 0h1m2 0h1m1 0h1m4 0h1m1 0h1m3 0h1m2 0h1m1 0h1m1 0h5m3 0h1m3 0h1m2 0h1m1 0h4m4 0h1m1 0h3m2 0h5m3 0h2m1 0h1m1 0h3m5 0h1m4 0h1m1 0h2m2 0h2m1 0h1m2 0h1M2 157.5h1m5 0h1m2 0h1m2 0h3m1 0h1m3 0h4m1 0h5m1 0h1m1 0h1m1 0h1m2 0h2m3 0h6m2 0h1m2 0h9m2 0h1m1 0h1m1 0h4m1 0h4m1 0h3m6 0h1m1 0h1m1 0h1m2 0h1m1 0h1m1 0h1m5 0h2m3 0h2m2 0h3m5 0h1m3 0h2m4 0h2m4 0h2m9 0h2m1 0h2m2 0h1M2 158.5h7m1 0h1m3 0h1m5 0h2m1 0h1m1 0h1m1 0h3m4 0h1m2 0h2m1 0h5m1 0h1m1 0h2m1 0h1m2 0h1m1 0h2m2 0h1m1 0h4m2 0h2m1 0h1m2 0h1m4 0h1m1 0h1m2 0h3m2 0h1m3 0h1m1 0h4m3 0h6m1 0h1m3 0h4m1 0h1m2 0h1m1 0h1m7 0h2m1 0h3m2 0h1m2 0h3m2 0h2m4 0h6"/></svg>
